<svg xmlns="http://www.w3.org/2000/svg" data-name="Layer 1" viewBox="0 0 128 160" x="0px" y="0px"><title>miscellaneous 53 solid</title><path d="M28.47662,49.56592A17.29668,17.29668,0,0,1,25.691,46.57959,25.49485,25.49485,0,0,0,14,68a24.26319,24.26319,0,0,0,.21069,2.99817A4.00007,4.00007,0,0,0,18.17957,74.5H35.76184a7.94071,7.94071,0,0,1-1.01971-3.00336c-.04376-.34851-.08051-.67828-.11194-.99664H18.17957A19.9931,19.9931,0,0,1,18,68,21.467,21.467,0,0,1,28.47662,49.56592Z"/><path d="M52.98828,49.55884a17.40955,17.40955,0,0,1-2.79718-2.97919A25.50716,25.50716,0,0,0,38.62787,70.26807c.02441.2348.051.47467.08307.73A3.99968,3.99968,0,0,0,42.67969,74.5h9.98773a28.19917,28.19917,0,0,1-.5755-4H42.67957A19.9931,19.9931,0,0,1,42.5,68,21.46711,21.46711,0,0,1,52.98828,49.55884Z"/><path d="M107.90979,70.5a28.1061,28.1061,0,0,1-.57343,4h2.48407a4,4,0,0,0,3.96887-3.50183A24.26319,24.26319,0,0,0,114,68a25.495,25.495,0,0,0-11.691-21.42047,17.54463,17.54463,0,0,1-2.20483,2.43341,27.94784,27.94784,0,0,1,2.15344,2.50806A21.39928,21.39928,0,0,1,110,68a19.99311,19.99311,0,0,1-.17957,2.5Z"/><path d="M41.06873,49.4884a29.76005,29.76005,0,0,1,7.122-6.37531l-.00006-.00012c-.02209-.05206-.03827-.10693-.05988-.15918q-.208-.50867-.37946-1.03461a16.96492,16.96492,0,0,1,1.52759-14.28052v-.00006A13.18727,13.18727,0,1,0,41.06873,49.4884Z"/><path d="M88.5,23.25751a13.12211,13.12211,0,0,0-9.77893,4.38123v.00006a16.86587,16.86587,0,0,1,1.9295,12.88788,27.88223,27.88223,0,0,1,16.47375,5.823A13.15054,13.15054,0,0,0,88.5,23.25751Z"/><path d="M59.96564,48.9527q.90536-.92725,1.88617-1.76282c.01648-.0141.03339-.02747.04987-.04144.65118-.5509,1.32288-1.07422,2.01868-1.5614l.00024-.00018.00012-.00006a28.15845,28.15845,0,0,1,8.42487-4.0047c.09711-.02759.19318-.05847.29065-.085.3645-.09973.732-.18854,1.10071-.27356.05237-.012.10425-.02551.15668-.03723.40326-.09058.809-.17047,1.21655-.24323l.03821-.007q.63528-.11252,1.27655-.19507H76.425A13.15986,13.15986,0,1,0,59.96564,48.9527Z"/><path d="M63.47363,85.86884a23.9658,23.9658,0,0,0,28.79572,3.23151l4.20123,4.00073a3.99118,3.99118,0,0,0,.76691,4.74695l17.325,16.5448A4.00026,4.00026,0,0,0,117.32483,115.5q.07819,0,.15649-.00305a4.00018,4.00018,0,0,0,2.82373-1.32874l6.675-7.4552a4,4,0,0,0-.21747-5.561l-17.325-16.5448A3.99987,3.99987,0,0,0,106.67517,83.5q-.07809,0-.15649.00305a3.98308,3.98308,0,0,0-1.70526.47247l-3.88672-3.70123A24.00861,24.00861,0,0,0,80.359,44.48132l-.00208-.00006a24.00011,24.00011,0,0,0-16.8833,41.38757Zm38.4801.90765L99.04346,90.027l-3.45465-3.28979a23.80377,23.80377,0,0,0,1.81531-1.71765c.43158-.45374.83728-.92511,1.22888-1.40533Zm-36.431-32.08142a20,20,0,1,1,.70764,28.27539A19.95,19.95,0,0,1,65.52271,54.69507Z"/><path d="M89.28931,70.99817A24.26319,24.26319,0,0,0,89.5,68a25.35174,25.35174,0,0,0-4.72723-14.76215A15.97555,15.97555,0,0,0,80.00537,52.5c-.35815,0-.71259.03192-1.068.05591A21.42157,21.42157,0,0,1,85.5,68a19.9931,19.9931,0,0,1-.17957,2.5H64.1394a16.02955,16.02955,0,0,0,1.04932,4H85.32043A4,4,0,0,0,89.28931,70.99817Z"/><path d="M120,12.5H8a8.009,8.009,0,0,0-8,8v66a8.00909,8.00909,0,0,0,8,8H51v8H46a2,2,0,0,0,0,4H82a2,2,0,0,0,0-4H77V96.33453a27.9449,27.9449,0,0,1-3.99994-.72565H73V102.5H55v-8H69.60138c-.5946-.23785-1.17975-.499-1.75708-.77753-.03479-.01678-.07-.03271-.10474-.04968q-.87708-.42764-1.72467-.91656l-.00537-.00317A27.942,27.942,0,0,1,55.20483,81.50037L55.20465,81.5H4v-61a4,4,0,0,1,4-4H120a4,4,0,0,1,4,4v61H111.953c.082.0722.16772.13879.24707.2146l8.98993,8.585h-.00006l3.088,2.94891A7.99408,7.99408,0,0,0,128,86.5v-66A8.009,8.009,0,0,0,120,12.5Z"/><text x="0" y="143" fill="#000000" font-size="5px" font-weight="bold" font-family="'Helvetica Neue', Helvetica, Arial-Unicode, Arial, Sans-serif">Created by priyanka</text><text x="0" y="148" fill="#000000" font-size="5px" font-weight="bold" font-family="'Helvetica Neue', Helvetica, Arial-Unicode, Arial, Sans-serif">from the Noun Project</text></svg>