<svg xmlns="http://www.w3.org/2000/svg" xmlns:xlink="http://www.w3.org/1999/xlink" version="1.1" x="0px" y="0px" viewBox="0 0 64 80" style="enable-background:new 0 0 64 64;" xml:space="preserve"><g><path d="M32,19c-7.168,0-13,5.832-13,13s5.832,13,13,13s13-5.832,13-13S39.168,19,32,19z M32,43c-1.075,0-2.22-1.527-3.009-4h6.019   C34.22,41.473,33.075,43,32,43z M28.481,37c-0.244-1.209-0.408-2.553-0.46-4h7.958c-0.052,1.447-0.217,2.791-0.46,4H28.481z    M21.051,33h4.971c0.046,1.419,0.184,2.763,0.409,4h-4.216C21.588,35.779,21.18,34.43,21.051,33z M32,21   c1.075,0,2.22,1.527,3.009,4h-6.019C29.78,22.527,30.925,21,32,21z M35.519,27c0.244,1.209,0.408,2.553,0.46,4h-7.958   c0.052-1.447,0.217-2.791,0.46-4H35.519z M26.022,31h-4.971c0.13-1.43,0.537-2.779,1.164-4h4.216   C26.206,28.237,26.067,29.581,26.022,31z M37.978,33h4.971c-0.13,1.43-0.537,2.779-1.164,4h-4.216   C37.794,35.763,37.933,34.419,37.978,33z M37.978,31c-0.046-1.419-0.184-2.763-0.409-4h4.216c0.626,1.221,1.034,2.57,1.164,4   H37.978z M40.479,25h-3.373c-0.368-1.295-0.837-2.422-1.391-3.341C37.588,22.335,39.232,23.493,40.479,25z M28.286,21.659   c-0.553,0.919-1.023,2.046-1.391,3.341h-3.373C24.768,23.493,26.412,22.335,28.286,21.659z M23.521,39h3.373   c0.368,1.295,0.837,2.422,1.391,3.341C26.412,41.665,24.768,40.507,23.521,39z M35.714,42.341c0.553-0.919,1.023-2.046,1.391-3.341   h3.373C39.232,40.507,37.588,41.665,35.714,42.341z"/><path d="M60,25c1.654,0,3-1.346,3-3V4c0-1.654-1.346-3-3-3H50c-1.654,0-3,1.346-3,3v4.364c-3.353-2.13-7.13-3.53-11.065-4.085   c-0.003-0.015-0.009-0.028-0.012-0.043c-0.017-0.085-0.046-0.164-0.068-0.247c-0.042-0.159-0.085-0.318-0.146-0.469   c-0.036-0.091-0.082-0.176-0.125-0.263c-0.065-0.134-0.133-0.265-0.212-0.39c-0.054-0.085-0.114-0.165-0.174-0.246   c-0.086-0.116-0.176-0.226-0.274-0.332c-0.069-0.075-0.14-0.145-0.214-0.214c-0.106-0.098-0.217-0.188-0.332-0.274   c-0.081-0.06-0.16-0.119-0.245-0.173c-0.126-0.08-0.258-0.148-0.393-0.213c-0.087-0.042-0.17-0.088-0.26-0.124   c-0.154-0.061-0.314-0.106-0.476-0.148c-0.08-0.021-0.157-0.05-0.239-0.066C32.516,1.029,32.262,1,32,1   c-0.262,0-0.517,0.029-0.765,0.077c-0.081,0.016-0.157,0.044-0.237,0.065c-0.163,0.042-0.324,0.087-0.478,0.149   c-0.089,0.036-0.172,0.081-0.258,0.122c-0.136,0.066-0.269,0.135-0.396,0.215c-0.084,0.053-0.162,0.112-0.242,0.171   c-0.117,0.087-0.229,0.178-0.336,0.277c-0.073,0.068-0.143,0.138-0.212,0.211c-0.099,0.107-0.19,0.219-0.277,0.335   c-0.059,0.08-0.118,0.158-0.172,0.242c-0.08,0.126-0.149,0.259-0.215,0.395c-0.042,0.086-0.087,0.169-0.123,0.259   c-0.061,0.153-0.105,0.312-0.147,0.474c-0.021,0.082-0.051,0.159-0.067,0.243c-0.003,0.015-0.009,0.028-0.012,0.043   c-1.04,0.146-2.06,0.369-3.065,0.627V1H1v18h6.199c-1.491,2.835-2.464,5.877-2.911,9.072C2.422,28.41,1,30.038,1,32   c0,1.963,1.423,3.591,3.29,3.928c0.208,1.474,0.531,2.931,0.97,4.352c-0.136,0.051-0.271,0.107-0.401,0.172l-1.49,0.745   C1.908,41.928,1,43.397,1,45.031v0.736c0,0.204,0.015,0.407,0.043,0.605c1.22,8.544,8.04,15.364,16.585,16.585   C17.829,62.985,18.031,63,18.233,63h0.736c1.634,0,3.103-0.908,3.833-2.369l0.745-1.491c0.065-0.13,0.12-0.265,0.172-0.401   c1.422,0.44,2.878,0.763,4.352,0.971C28.409,61.577,30.037,63,32,63c1.966,0,3.595-1.427,3.929-3.298   c4.78-0.671,9.251-2.526,13.071-5.456V56c0,3.86,3.141,7,7,7v-2c-2.757,0-5-2.243-5-5v-4c0-2.757,2.243-5,5-5s5,2.243,5,5v8   c0,0.551-0.448,1-1,1s-1-0.449-1-1v-4v-2v-2c0-1.654-1.346-3-3-3s-3,1.346-3,3v4c0,1.654,1.346,3,3,3c0.352,0,0.686-0.072,1-0.184   V60c0,1.654,1.346,3,3,3s3-1.346,3-3v-8c0-3.598-2.73-6.568-6.227-6.955c1.507-2.85,2.489-5.907,2.938-9.117   C61.578,35.591,63,33.962,63,32c0-1.961-1.421-3.589-3.286-3.928c-0.145-1.039-0.341-2.067-0.599-3.072H60z M56,57   c-0.552,0-1-0.449-1-1v-4c0-0.551,0.448-1,1-1s1,0.449,1,1v2v2C57,56.551,56.552,57,56,57z M60,23H50c-0.552,0-1-0.449-1-1v-1h12v1   C61,22.551,60.552,23,60,23z M49,19V7h12v12H49z M50,3h10c0.552,0,1,0.449,1,1v1H49V4C49,3.449,49.448,3,50,3z M30.02,5.195   l-0.004-0.08C30.013,5.062,30.007,5.009,30,5c0-1.103,0.897-2,2-2c1.099,0,1.993,0.892,1.999,1.99l-0.003,0.048   C33.975,6.123,33.089,7,32,7C30.964,7,30.12,6.206,30.02,5.195z M16.517,11.809L23,4.606v11.526L16.517,11.809z M14.555,11h-3.109   l-7.2-8h17.51L14.555,11z M9.483,11.809L3,16.132V4.606L9.483,11.809z M11.303,13h3.395l6,4H5.303L11.303,13z M3,32   c0-1.103,0.897-2,2-2s2,0.897,2,2s-0.897,2-2,2S3,33.103,3,32z M21.759,58.247l-0.745,1.49C20.624,60.516,19.841,61,18.97,61   h-0.736c-0.108,0-0.217-0.008-0.323-0.023c-7.67-1.096-13.792-7.218-14.888-14.891C3.007,45.98,3,45.874,3,45.767v-0.736   c0-0.872,0.484-1.655,1.264-2.044l1.49-0.745C6.069,42.083,6.423,42,6.775,42c0.94,0,1.773,0.564,2.122,1.437l0.82,2.05   C9.905,45.956,10,46.449,10,47.006c0,1.138-0.491,2.22-1.347,2.968l-0.813,0.71l0.211,0.631c0.726,2.176,2.457,3.907,4.632,4.632   l0.587,0.195l0.988-0.988c1.103-1.103,2.807-1.452,4.254-0.874l2.051,0.82C21.436,55.452,22,56.285,22,57.225   C22,57.577,21.916,57.931,21.759,58.247z M32,61c-1.103,0-2-0.897-2-2s0.897-2,2-2s2,0.897,2,2S33.103,61,32,61z M61,32   c0,1.103-0.897,2-2,2s-2-0.897-2-2s0.897-2,2-2S61,30.897,61,32z M57.718,28.23C56.143,28.767,55,30.245,55,32   c0,1.754,1.141,3.231,2.715,3.769c-0.484,3.346-1.597,6.51-3.317,9.423c-2.974,0.7-5.216,3.298-5.379,6.443   c-3.775,3.276-8.331,5.357-13.252,6.07C35.225,56.137,33.75,55,32,55c-1.753,0-3.23,1.141-3.769,2.714   c-1.449-0.211-2.877-0.545-4.269-0.996c-0.182-1.549-1.179-2.881-2.656-3.472l-2.051-0.82c-2.181-0.871-4.75-0.344-6.41,1.316   l-0.088,0.087c-1.122-0.523-2.036-1.431-2.568-2.549C11.344,50.162,12,48.618,12,46.952c0-0.759-0.143-1.501-0.425-2.208   l-0.82-2.051c-0.591-1.477-1.923-2.474-3.472-2.656c-0.451-1.391-0.785-2.82-0.996-4.269C7.859,35.23,9,33.753,9,32   c0-1.754-1.142-3.231-2.715-3.769C6.757,24.956,7.833,21.858,9.488,19H25V6.961c1.053-0.293,2.133-0.521,3.23-0.68   C28.767,7.857,30.245,9,32,9c1.752,0,3.228-1.139,3.768-2.71C39.806,6.878,43.661,8.416,47,10.779V22c0,1.654,1.346,3,3,3h7.038   C57.331,26.053,57.559,27.133,57.718,28.23z"/><rect x="47" y="31" width="6" height="2"/><rect x="31" y="47" width="2" height="6"/><rect x="11" y="31" width="6" height="2"/><rect x="31" y="11" width="2" height="6"/></g><text x="0" y="79" fill="#000000" font-size="5px" font-weight="bold" font-family="'Helvetica Neue', Helvetica, Arial-Unicode, Arial, Sans-serif">Created by Eucalyp</text><text x="0" y="84" fill="#000000" font-size="5px" font-weight="bold" font-family="'Helvetica Neue', Helvetica, Arial-Unicode, Arial, Sans-serif">from the Noun Project</text></svg>