<svg xmlns="http://www.w3.org/2000/svg" xmlns:xlink="http://www.w3.org/1999/xlink" version="1.1" x="0px" y="0px" viewBox="0 0 100 125" enable-background="new 0 0 100 100" xml:space="preserve"><g><path d="M59.4,22.6c-1.6-0.7-2.5-1.6-2.6-2.1c-0.1-0.4,0.4-1.1,0.7-1.4c1.5-1.7,2.2-3.4,2.1-5.3c-0.2-3.1-2.7-5.2-4.2-6.5   C55.3,7.1,55.1,7,55,6.9C53.2,5.2,51.4,5,50.5,5c-0.1,0-0.3,0-0.4,0c-0.1,0-0.2,0-0.4,0c-0.9,0-2.6,0.2-4.4,1.9   C45.2,7,45,7.1,44.9,7.3c-1.5,1.3-4,3.4-4.2,6.5c-0.1,1.9,0.6,3.6,2.1,5.3c0.3,0.3,0.8,0.9,0.7,1.4c-0.1,0.5-1,1.4-2.6,2.1   C25.6,26.5,15,39.4,15,54.1c0,6.8,2.2,13.3,6.4,18.8c1.1,1.6,2.3,3.2,3.5,4.9c1.5,2,3.6,5,4.4,6.5c-2.1,2.7-0.6,5.6,0,7   c0.7,1.4,2.5,2,4.4,2.4c3.4,0.7,8.9,1.2,16.4,1.4l0.1,0l0.1,0c7.5-0.2,13-0.7,16.4-1.4c3.2-0.7,4-1.6,4.4-2.4c0.7-1.4,2.1-4.3,0-7   c0.8-1.5,2.9-4.4,4.4-6.5c1.2-1.6,2.4-3.3,3.5-4.9c4.2-5.5,6.4-12,6.4-18.8C85.4,39.4,74.7,26.5,59.4,22.6z M76.9,71.3   C73.2,76.8,67,84,68.4,85.2c1.5,1.2,1.4,2.5,0.3,4.9c0,0-0.8,1.8-18.5,2.3c-17.7-0.5-18.5-2.3-18.5-2.3c-1.2-2.4-1.2-3.6,0.3-4.9   c1.4-1.2-4.8-8.4-8.4-13.9c-3.7-4.9-5.9-10.8-5.9-17.2c0-13.9,10.3-25.6,24.2-29c3.6-1.5,6-4.5,3-7.8c-3.7-4,0.7-7,2.4-8.5   c1.1-1,2.2-1.2,2.7-1.2c0.2,0,0.4,0,0.4,0s0.1,0,0.4,0c0.5,0,1.5,0.2,2.7,1.2c1.7,1.5,6.1,4.5,2.4,8.5c-3,3.3-0.7,6.2,3,7.8   c13.9,3.4,24.2,15.1,24.2,29C82.8,60.5,80.6,66.4,76.9,71.3z"/><path d="M63.7,42.3l-1.9,0.4c0.1-0.7,0.2-1.4,0.2-2.1c0-6.5-5.3-11.8-11.8-11.8c-6.5,0-11.8,5.3-11.8,11.8c0,0.7,0.1,1.4,0.2,2.1   l-1.9-0.4c-0.6-0.1-1.2,0.3-1.3,0.9c-0.1,0.6,0.3,1.2,0.9,1.3l3.9,0.8c3.3,0.7,6.7,1,10.1,1c3.4,0,6.7-0.3,10.1-1l3.9-0.8   c0.6-0.1,1-0.7,0.9-1.3C64.9,42.6,64.3,42.2,63.7,42.3z M55.8,41.1c0,0.1,0,0.1,0,0.2c0,0.1,0,0.2,0,0.3c0,0.1,0,0.1,0,0.2   c0,0.1,0,0.2-0.1,0.3c0,0.1,0,0.1-0.1,0.2c0,0.1-0.1,0.2-0.1,0.3c0,0.1-0.1,0.1-0.1,0.2c0,0.1-0.1,0.2-0.1,0.3   c0,0.1-0.1,0.1-0.1,0.2c0,0.1-0.1,0.2-0.1,0.2c0,0.1-0.1,0.1-0.1,0.2c0,0.1-0.1,0.2-0.2,0.2c0,0,0,0,0,0.1c-3,0.3-6,0.3-9.1,0   c0,0,0,0,0-0.1c-0.1-0.1-0.1-0.2-0.2-0.2c0-0.1-0.1-0.1-0.1-0.2c0-0.1-0.1-0.2-0.1-0.2c0-0.1-0.1-0.1-0.1-0.2   c0-0.1-0.1-0.2-0.1-0.3c0-0.1-0.1-0.1-0.1-0.2c0-0.1-0.1-0.2-0.1-0.3c0-0.1,0-0.1-0.1-0.2c0-0.1,0-0.2-0.1-0.3c0-0.1,0-0.1,0-0.2   c0-0.1,0-0.2,0-0.3c0-0.1,0-0.1,0-0.2c0-0.2,0-0.3,0-0.5c0-3.1,2.5-5.6,5.6-5.6s5.6,2.5,5.6,5.6C55.8,40.8,55.8,41,55.8,41.1z    M50.2,30.7c5.5,0,9.9,4.5,9.9,9.9c0,0.9-0.1,1.7-0.3,2.5c-0.9,0.2-1.8,0.4-2.7,0.5c0-0.1,0.1-0.2,0.1-0.3c0,0,0-0.1,0-0.1   c0.1-0.2,0.1-0.4,0.2-0.6c0,0,0,0,0,0c0.1-0.2,0.1-0.4,0.1-0.6c0,0,0-0.1,0-0.1c0-0.2,0.1-0.4,0.1-0.6c0,0,0-0.1,0-0.1   c0-0.2,0-0.4,0-0.6c0-4.1-3.4-7.5-7.5-7.5s-7.5,3.4-7.5,7.5c0,0.2,0,0.4,0,0.6c0,0,0,0.1,0,0.1c0,0.2,0,0.4,0.1,0.6   c0,0,0,0.1,0,0.1c0,0.2,0.1,0.4,0.1,0.6c0,0,0,0,0,0c0.1,0.2,0.1,0.4,0.2,0.6c0,0,0,0.1,0,0.1c0,0.1,0.1,0.2,0.1,0.3   c-0.9-0.1-1.8-0.3-2.7-0.5c-0.2-0.8-0.3-1.7-0.3-2.5C40.2,35.2,44.7,30.7,50.2,30.7z"/></g><text x="0" y="115" fill="#000000" font-size="5px" font-weight="bold" font-family="'Helvetica Neue', Helvetica, Arial-Unicode, Arial, Sans-serif">Created by Piero Borgo</text><text x="0" y="120" fill="#000000" font-size="5px" font-weight="bold" font-family="'Helvetica Neue', Helvetica, Arial-Unicode, Arial, Sans-serif">from the Noun Project</text></svg>