<svg xmlns="http://www.w3.org/2000/svg" xmlns:xlink="http://www.w3.org/1999/xlink" version="1.1" x="0px" y="0px" viewBox="0 0 100 125" style="enable-background:new 0 0 100 100;" xml:space="preserve"><g><path d="M75.8,5.1H24.2C13.6,5.1,5,13.7,5,24.3v51.6c0,10.6,8.6,19.2,19.2,19.2h51.6c10.6,0,19.2-8.6,19.2-19.2V24.3   C95,13.7,86.4,5.1,75.8,5.1z M24.2,10.1h51.6c7.8,0,14.2,6.4,14.2,14.2v13.2H73.2c-1-12-11-21.4-23.2-21.4s-22.2,9.4-23.2,21.4H10   V24.3C10,16.5,16.4,10.1,24.2,10.1z M50,47.1c-4.1,0-7.5-3.4-7.5-7.5s3.4-7.5,7.5-7.5s7.5,3.4,7.5,7.5S54.1,47.1,50,47.1z M50,52.6   c3,0,5.7,1.2,7.7,3.4c-2.4,1.1-5,1.7-7.7,1.7c-2.8,0-5.4-0.6-7.7-1.7C44.2,53.8,47,52.6,50,52.6z M62,53.2   c-1.3-1.5-2.8-2.7-4.4-3.7c3-2.3,5-5.9,5-9.9c0-6.9-5.6-12.5-12.5-12.5s-12.5,5.6-12.5,12.5c0,4,1.9,7.6,4.9,9.9   c-1.7,0.9-3.2,2.2-4.4,3.7c-3.9-3.4-6.3-8.3-6.3-13.8c0-10.1,8.2-18.3,18.3-18.3s18.3,8.2,18.3,18.3C68.3,44.9,65.8,49.8,62,53.2z    M75.8,90.1H24.2c-7.8,0-14.2-6.4-14.2-14.2V42.5h16.9C28.4,53.9,38.2,62.7,50,62.7s21.6-8.8,23.1-20.2H90v33.4   C90,83.7,83.6,90.1,75.8,90.1z"/><path d="M71.3,66.4H28.7c-1.4,0-2.5,1.1-2.5,2.5s1.1,2.5,2.5,2.5h42.6c1.4,0,2.5-1.1,2.5-2.5S72.7,66.4,71.3,66.4z"/><path d="M61.7,75.4H38.3c-1.4,0-2.5,1.1-2.5,2.5s1.1,2.5,2.5,2.5h23.4c1.4,0,2.5-1.1,2.5-2.5S63.1,75.4,61.7,75.4z"/></g><text x="0" y="115" fill="#000000" font-size="5px" font-weight="bold" font-family="'Helvetica Neue', Helvetica, Arial-Unicode, Arial, Sans-serif">Created by Eugene Dobrik</text><text x="0" y="120" fill="#000000" font-size="5px" font-weight="bold" font-family="'Helvetica Neue', Helvetica, Arial-Unicode, Arial, Sans-serif">from the Noun Project</text></svg>